<?xml version="1.0" encoding="UTF-8"?>
<!DOCTYPE svg PUBLIC "-//W3C//DTD SVG 1.1//EN" "http://www.w3.org/Graphics/SVG/1.1/DTD/svg11.dtd">
<svg xmlns="http://www.w3.org/2000/svg" version="1.1" width="444px" height="40px" style="shape-rendering:geometricPrecision; text-rendering:geometricPrecision; image-rendering:optimizeQuality; fill-rule:evenodd; clip-rule:evenodd" xmlns:xlink="http://www.w3.org/1999/xlink">
<g><path style="opacity:0.573" fill="#000000" d="M 311.5,5.5 C 316.123,4.40815 317.956,6.07482 317,10.5C 316.25,11.1258 315.416,11.6258 314.5,12C 316.378,15.4577 318.711,18.4577 321.5,21C 321.387,22.2798 320.72,23.1131 319.5,23.5C 318.086,22.376 316.586,21.376 315,20.5C 316.398,23.6559 317.565,26.9892 318.5,30.5C 319.157,34.5095 317.49,36.1762 313.5,35.5C 313.769,33.5714 313.269,31.9047 312,30.5C 310.67,34.0067 308.17,35.6734 304.5,35.5C 304.755,32.9837 305.589,30.6504 307,28.5C 307.667,25.1667 307.667,21.8333 307,18.5C 304.698,22.9368 302.532,27.4368 300.5,32C 301.337,33.0113 301.67,34.1779 301.5,35.5C 292.663,34.5016 291.163,30.5016 297,23.5C 298.194,21.4746 299.694,21.1413 301.5,22.5C 301.633,15.2016 305.3,11.3683 312.5,11C 310.365,9.44426 310.032,7.61093 311.5,5.5 Z M 312.5,7.5 C 313.675,7.28099 314.675,7.61432 315.5,8.5C 313.948,9.79789 312.948,9.46455 312.5,7.5 Z M 310.5,13.5 C 312.103,13.3118 313.437,13.8118 314.5,15C 311.664,19.5121 312.164,23.6788 316,27.5C 316.667,29.5 316.667,31.5 316,33.5C 315.667,31.8333 315.333,30.1667 315,28.5C 312.787,25.9054 310.953,23.0721 309.5,20C 310.287,17.9011 310.62,15.7345 310.5,13.5 Z M 298.5,25.5 C 299.386,24.2241 300.386,24.2241 301.5,25.5C 300.767,26.087 299.767,26.087 298.5,25.5 Z M 297.5,27.5 C 301.253,28.4855 301.253,29.8188 297.5,31.5C 296.833,31.3333 296.167,31.1667 295.5,31C 296.305,29.8873 296.972,28.7206 297.5,27.5 Z"/></g>
<g><path style="opacity:0.52" fill="#000000" d="M 171.5,6.5 C 173.792,6.24358 175.959,6.57692 178,7.5C 182.091,17.0167 180.925,25.6833 174.5,33.5C 169.167,32.1667 163.833,32.1667 158.5,33.5C 154.918,30.6784 152.585,27.0118 151.5,22.5C 151.529,20.9707 152.196,19.804 153.5,19C 157.153,16.7614 160.487,17.0948 163.5,20C 168.167,20.6667 172.833,20.6667 177.5,20C 176.167,17 176.167,14 177.5,11C 175.872,8.17834 173.872,7.84501 171.5,10C 173.344,12.8037 174.011,15.9703 173.5,19.5C 171.5,19.5 169.5,19.5 167.5,19.5C 167.336,16.8127 167.503,14.146 168,11.5C 169.669,10.1537 170.836,8.487 171.5,6.5 Z M 155.5,24.5 C 162.5,24.5 169.5,24.5 176.5,24.5C 176.528,26.5824 175.861,28.4157 174.5,30C 168.78,30.7876 163.114,30.6209 157.5,29.5C 156.05,28.1502 155.383,26.4835 155.5,24.5 Z"/></g>
<g><path style="opacity:0.622" fill="#000000" d="M 11.5,9.5 C 20.1667,9.5 28.8333,9.5 37.5,9.5C 37.335,12.8499 37.5017,16.1832 38,19.5C 39.9978,22.983 40.4978,26.6497 39.5,30.5C 38.8333,30.8333 38.1667,31.1667 37.5,31.5C 28.1695,28.954 18.8361,28.954 9.5,31.5C 9.6894,24.0464 10.3561,16.7131 11.5,9.5 Z M 13.5,11.5 C 20.8333,11.5 28.1667,11.5 35.5,11.5C 35.6602,13.1992 35.4935,14.8659 35,16.5C 28,16.5 21,16.5 14,16.5C 13.5065,14.8659 13.3398,13.1992 13.5,11.5 Z M 15.5,17.5 C 17.924,17.1924 20.2573,17.5258 22.5,18.5C 21.3333,18.8333 20.1667,19.1667 19,19.5C 17.3189,19.3917 16.1522,18.7251 15.5,17.5 Z M 26.5,17.5 C 28.924,17.1924 31.2573,17.5258 33.5,18.5C 32.3333,18.8333 31.1667,19.1667 30,19.5C 28.3189,19.3917 27.1522,18.7251 26.5,17.5 Z M 11.5,21.5 C 20.1667,21.5 28.8333,21.5 37.5,21.5C 37.5,22.8333 37.5,24.1667 37.5,25.5C 28.8333,25.5 20.1667,25.5 11.5,25.5C 11.5,24.1667 11.5,22.8333 11.5,21.5 Z"/></g>
<g><path style="opacity:0.761" fill="#6b6c6a" d="M 331.5,13.5 C 333.22,15.6581 334.053,18.3248 334,21.5C 334.953,23.5922 336.286,23.9255 338,22.5C 338.179,19.4465 338.679,16.4465 339.5,13.5C 340.795,17.3803 340.795,21.2136 339.5,25C 337.098,25.8141 334.765,25.6474 332.5,24.5C 331.574,20.9062 331.241,17.2396 331.5,13.5 Z"/></g>
<g><path style="opacity:0.698" fill="#6b6c6a" d="M 387.5,13.5 C 389.924,13.1924 392.257,13.5258 394.5,14.5C 389.605,14.5542 387.438,16.8875 388,21.5C 389.241,23.4206 390.741,23.754 392.5,22.5C 390.076,20.2864 390.743,19.2864 394.5,19.5C 394.5,21.5 394.5,23.5 394.5,25.5C 385.313,25.8381 382.979,21.8381 387.5,13.5 Z"/></g>
<g><path style="opacity:0.739" fill="#6b6c6a" d="M 64.5,14.5 C 66.8568,14.3367 69.1902,14.5034 71.5,15C 72.0814,15.8926 72.4148,16.8926 72.5,18C 72.0187,20.3737 71.852,22.8737 72,25.5C 69.6194,26.435 67.1194,26.7683 64.5,26.5C 64.5,22.5 64.5,18.5 64.5,14.5 Z M 66.5,16.5 C 71.8333,17.5 71.8333,18.5 66.5,19.5C 66.5,18.5 66.5,17.5 66.5,16.5 Z M 66.5,21.5 C 71.6393,22.9407 71.6393,23.9407 66.5,24.5C 66.5,23.5 66.5,22.5 66.5,21.5 Z"/></g>
<g><path style="opacity:0.68" fill="#6b6c6a" d="M 81.5,25.5 C 75.1863,28.2436 72.6863,26.2436 74,19.5C 78.4865,19.3127 82.9865,18.9793 87.5,18.5C 87.238,17.0222 87.5713,15.6888 88.5,14.5C 89.4909,18.4454 89.8242,22.4454 89.5,26.5C 86.7212,26.7214 84.0545,26.388 81.5,25.5 Z M 84.5,20.5 C 85.5,20.5 86.5,20.5 87.5,20.5C 87.5,21.8333 87.5,23.1667 87.5,24.5C 84.0136,24.7047 83.0136,23.3714 84.5,20.5 Z M 81.5,25.5 C 79.9142,24.8519 78.2475,24.3519 76.5,24C 77.3333,23.8333 78.1667,23.6667 79,23.5C 80.3756,23.6842 81.2089,24.3509 81.5,25.5 Z"/></g>
<g><path style="opacity:0.739" fill="#6b6c6a" d="M 202.5,14.5 C 204.857,14.3367 207.19,14.5034 209.5,15C 210.081,15.8926 210.415,16.8926 210.5,18C 210.019,20.3737 209.852,22.8737 210,25.5C 207.619,26.435 205.119,26.7683 202.5,26.5C 202.5,22.5 202.5,18.5 202.5,14.5 Z M 204.5,16.5 C 209.833,17.5 209.833,18.5 204.5,19.5C 204.5,18.5 204.5,17.5 204.5,16.5 Z M 204.5,21.5 C 209.639,22.9407 209.639,23.9407 204.5,24.5C 204.5,23.5 204.5,22.5 204.5,21.5 Z"/></g>
<g><path style="opacity:0.829" fill="#6b6c6a" d="M 225.5,14.5 C 227.176,15.1834 227.843,16.5168 227.5,18.5C 231.24,17.7415 232.907,19.2415 232.5,23C 232.167,24.1667 231.833,25.3333 231.5,26.5C 230.04,18.7212 228.373,18.7212 226.5,26.5C 225.509,22.5546 225.176,18.5546 225.5,14.5 Z"/></g>
<g><path style="opacity:0.673" fill="#6b6c6a" d="M 356.5,14.5 C 358.032,15.6774 359.532,17.0107 361,18.5C 367.833,16 370,18.1667 367.5,25C 363.693,24.894 360.026,25.0607 356.5,25.5C 356.84,22.8559 356.173,20.5225 354.5,18.5C 355.853,17.4763 356.52,16.143 356.5,14.5 Z M 358.5,19.5 C 359.586,19.62 360.253,20.2867 360.5,21.5C 360.167,22.1667 359.833,22.8333 359.5,23.5C 358.571,22.3112 358.238,20.9778 358.5,19.5 Z M 363.5,19.5 C 366.861,20.2032 367.194,21.5365 364.5,23.5C 362.358,22.5629 362.024,21.2296 363.5,19.5 Z"/></g>
<g><path style="opacity:0.715" fill="#6b6c6a" d="M 374.5,14.5 C 376.5,14.5 378.5,14.5 380.5,14.5C 379.776,17.9354 379.61,21.2687 380,24.5C 378.274,25.5762 376.441,25.7429 374.5,25C 373.941,24.2753 373.608,23.4419 373.5,22.5C 373.544,19.8831 373.877,17.2164 374.5,14.5 Z M 375.5,16.5 C 376.675,16.281 377.675,16.6143 378.5,17.5C 376.948,18.7979 375.948,18.4646 375.5,16.5 Z M 376.5,20.5 C 378.625,21.3676 378.791,22.3676 377,23.5C 375.317,22.8235 375.15,21.8235 376.5,20.5 Z"/></g>
<g><path style="opacity:0.625" fill="#6b6c6a" d="M 421.5,14.5 C 423.032,15.6774 424.532,17.0107 426,18.5C 427.814,17.2404 429.647,17.2404 431.5,18.5C 430.624,19.2508 429.624,19.7508 428.5,20C 431.346,20.8793 432.013,22.5459 430.5,25C 427.518,25.498 424.518,25.6646 421.5,25.5C 421.5,23.5 421.5,21.5 421.5,19.5C 419.801,19.3398 418.134,19.5065 416.5,20C 419.346,20.8793 420.013,22.5459 418.5,25C 416.741,25.7975 415.074,25.6309 413.5,24.5C 414.376,23.7492 415.376,23.2492 416.5,23C 413.654,22.1207 412.987,20.4541 414.5,18C 416.81,17.5034 419.143,17.3367 421.5,17.5C 421.5,16.5 421.5,15.5 421.5,14.5 Z M 423.5,19.5 C 425.054,20.693 426.721,21.8596 428.5,23C 426.866,23.4935 425.199,23.6602 423.5,23.5C 423.5,22.1667 423.5,20.8333 423.5,19.5 Z"/></g>
<g><path style="opacity:0.589" fill="#6b6c6a" d="M 52.5,15.5 C 54.7925,15.2436 56.9592,15.5769 59,16.5C 58.8333,19.6667 58.6667,22.8333 58.5,26C 56.1667,26.6667 53.8333,26.6667 51.5,26C 53.0589,25.0201 54.7256,24.1867 56.5,23.5C 55.7366,22.2807 54.7366,21.2807 53.5,20.5C 54.5,19.8333 55.5,19.1667 56.5,18.5C 54.6684,17.9432 53.3351,16.9432 52.5,15.5 Z"/></g>
<g><path style="opacity:0.589" fill="#6b6c6a" d="M 190.5,15.5 C 192.792,15.2436 194.959,15.5769 197,16.5C 196.833,19.6667 196.667,22.8333 196.5,26C 194.167,26.6667 191.833,26.6667 189.5,26C 191.059,25.0201 192.726,24.1867 194.5,23.5C 193.737,22.2807 192.737,21.2807 191.5,20.5C 192.5,19.8333 193.5,19.1667 194.5,18.5C 192.668,17.9432 191.335,16.9432 190.5,15.5 Z"/></g>
<g><path style="opacity:0.676" fill="#6b6c6a" d="M 220.5,15.5 C 222.057,16.4663 223.39,17.7996 224.5,19.5C 221.833,21.5 221.833,23.5 224.5,25.5C 223.311,26.4287 221.978,26.762 220.5,26.5C 219.833,18.5 219.167,18.5 218.5,26.5C 216.167,26.5 213.833,26.5 211.5,26.5C 210.965,23.7615 211.965,21.9282 214.5,21C 213.376,20.7508 212.376,20.2508 211.5,19.5C 213.695,18.2309 215.861,18.2309 218,19.5C 219.706,18.6921 220.539,17.3588 220.5,15.5 Z"/></g>
<g><path style="opacity:0.736" fill="#6b6c6a" d="M 342.5,17.5 C 349.107,15.749 351.607,18.0823 350,24.5C 348.301,25.4061 346.467,25.7394 344.5,25.5C 344.719,26.675 344.386,27.675 343.5,28.5C 342.511,24.8927 342.177,21.226 342.5,17.5 Z M 345.5,19.5 C 348.861,20.2032 349.194,21.5365 346.5,23.5C 344.358,22.5629 344.024,21.2296 345.5,19.5 Z"/></g>
<g><path style="opacity:0.818" fill="#6b6c6a" d="M 396.5,17.5 C 398.036,19.0251 399.036,21.0251 399.5,23.5C 400.988,21.8507 401.988,19.8507 402.5,17.5C 403.48,20.0865 403.813,22.7531 403.5,25.5C 397.095,26.5938 394.762,23.9271 396.5,17.5 Z"/></g>
<g><path style="opacity:0.643" fill="#6b6c6a" d="M 406.5,17.5 C 410.938,16.4251 412.938,18.0917 412.5,22.5C 407.318,22.5573 407.318,23.224 412.5,24.5C 405.746,26.5322 403.746,24.1989 406.5,17.5 Z"/></g>
<g><path style="opacity:0.685" fill="#6b6c6a" d="M 91.5,18.5 C 95.399,19.1829 99.399,19.3496 103.5,19C 106.167,25.3333 104.167,27.6667 97.5,26C 95.7705,18.837 94.1039,19.0037 92.5,26.5C 91.52,23.9135 91.1866,21.2469 91.5,18.5 Z M 99.5,20.5 C 102.861,21.2032 103.194,22.5365 100.5,24.5C 98.3576,23.5629 98.0243,22.2296 99.5,20.5 Z"/></g>
<g><path style="opacity:0.616" fill="#6b6c6a" d="M 106.5,18.5 C 108.857,18.3367 111.19,18.5034 113.5,19C 115.312,25.1895 112.978,27.5228 106.5,26C 105.351,23.5408 105.351,21.0408 106.5,18.5 Z M 108.5,20.5 C 109.5,20.5 110.5,20.5 111.5,20.5C 111.5,21.8333 111.5,23.1667 111.5,24.5C 110.5,24.5 109.5,24.5 108.5,24.5C 108.5,23.1667 108.5,21.8333 108.5,20.5 Z"/></g>
<g><path style="opacity:0.787" fill="#6b6c6a" d="M 115.5,18.5 C 119.182,18.3347 122.848,18.5014 126.5,19C 127.777,21.4659 127.777,23.9659 126.5,26.5C 124.627,18.7212 122.96,18.7212 121.5,26.5C 119.627,18.7212 117.96,18.7212 116.5,26.5C 115.52,23.9135 115.187,21.2469 115.5,18.5 Z"/></g>
<g><path style="opacity:0.588" fill="#6b6c6a" d="M 129.5,18.5 C 131.288,18.2148 132.955,18.5481 134.5,19.5C 133.624,20.2508 132.624,20.7508 131.5,21C 134.346,21.8793 135.013,23.5459 133.5,26C 131.741,26.7975 130.074,26.6309 128.5,25.5C 129.376,24.7492 130.376,24.2492 131.5,24C 128.541,22.9543 127.874,21.1209 129.5,18.5 Z"/></g>
<g><path style="opacity:0.685" fill="#6b6c6a" d="M 234.5,18.5 C 238.399,19.1829 242.399,19.3496 246.5,19C 249.167,25.3333 247.167,27.6667 240.5,26C 238.771,18.837 237.104,19.0037 235.5,26.5C 234.52,23.9135 234.187,21.2469 234.5,18.5 Z M 242.5,20.5 C 245.861,21.2032 246.194,22.5365 243.5,24.5C 241.358,23.5629 241.024,22.2296 242.5,20.5 Z"/></g>
<g><path style="opacity:0.647" fill="#6b6c6a" d="M 249.5,18.5 C 256.158,17.3445 258.158,19.8445 255.5,26C 248.75,27.4689 246.75,24.9689 249.5,18.5 Z M 251.5,20.5 C 254.861,21.2032 255.194,22.5365 252.5,24.5C 250.358,23.5629 250.024,22.2296 251.5,20.5 Z"/></g>
<g><path style="opacity:0.787" fill="#6b6c6a" d="M 258.5,18.5 C 262.182,18.3347 265.848,18.5014 269.5,19C 270.777,21.4659 270.777,23.9659 269.5,26.5C 267.627,18.7212 265.96,18.7212 264.5,26.5C 262.627,18.7212 260.96,18.7212 259.5,26.5C 258.52,23.9135 258.187,21.2469 258.5,18.5 Z"/></g>
<g><path style="opacity:0.588" fill="#6b6c6a" d="M 272.5,18.5 C 274.288,18.2148 275.955,18.5481 277.5,19.5C 276.624,20.2508 275.624,20.7508 274.5,21C 277.346,21.8793 278.013,23.5459 276.5,26C 274.741,26.7975 273.074,26.6309 271.5,25.5C 272.376,24.7492 273.376,24.2492 274.5,24C 271.541,22.9543 270.874,21.1209 272.5,18.5 Z"/></g>
</svg>
